<?xml version="1.0" encoding="iso-8859-1"?>
<!-- Generator: Adobe Illustrator 19.0.0, SVG Export Plug-In . SVG Version: 6.00 Build 0)  -->
<svg version="1.1" id="Capa_1" xmlns="http://www.w3.org/2000/svg" xmlns:xlink="http://www.w3.org/1999/xlink" x="0px" y="0px"
	 viewBox="0 0 512.029 512.029" style="enable-background:new 0 0 512.029 512.029;" xml:space="preserve">
<path style="fill:#344A5E;" d="M512.014,227.229v253.867c0,17.067-13.867,30.933-30.933,30.933H30.948
	c-17.067,0-30.933-13.867-30.933-30.933V178.162c0-94.933,75.733-177.067,170.667-178.133c58.667-1.067,112,27.733,142.933,72.533
	c24.533,34.133,62.933,55.467,104.533,56.533c3.2,0,5.333,0,8.533,1.067C476.814,135.495,512.014,179.229,512.014,227.229z"/>
<g>
	<path style="fill:#F3F3F3;" d="M78.948,297.629h-38.4c-5.333,0-10.667,4.267-10.667,10.667v164.267
		c0,5.333,4.267,10.667,10.667,10.667h38.4c5.333,0,10.667-4.267,10.667-10.667V307.229
		C89.614,301.895,84.281,297.629,78.948,297.629z"/>
	<path style="fill:#F3F3F3;" d="M144.014,297.629h-33.067c-5.333,0-10.667,4.267-10.667,10.667v164.267
		c0,5.333,4.267,10.667,10.667,10.667h33.067c5.333,0,10.667-4.267,10.667-10.667V307.229
		C153.614,301.895,149.348,297.629,144.014,297.629z"/>
	<path style="fill:#F3F3F3;" d="M208.014,297.629h-33.067c-5.333,0-10.667,4.267-10.667,10.667v164.267
		c0,5.333,4.267,10.667,10.667,10.667h33.067c5.333,0,10.667-4.267,10.667-10.667V307.229
		C218.681,301.895,213.348,297.629,208.014,297.629z"/>
	<path style="fill:#F3F3F3;" d="M272.014,297.629h-33.067c-5.333,0-10.667,4.267-10.667,10.667v164.267
		c0,5.333,4.267,10.667,10.667,10.667h33.067c5.333,0,10.667-4.267,10.667-10.667V307.229
		C282.681,301.895,278.414,297.629,272.014,297.629z"/>
	<path style="fill:#F3F3F3;" d="M337.081,297.629h-33.067c-5.333,0-10.667,4.267-10.667,10.667v164.267
		c0,5.333,4.267,10.667,10.667,10.667h33.067c5.333,0,10.667-4.267,10.667-10.667V307.229
		C346.681,301.895,342.414,297.629,337.081,297.629z"/>
	<path style="fill:#F3F3F3;" d="M401.081,297.629h-33.067c-5.333,0-10.667,4.267-10.667,10.667v164.267
		c0,5.333,4.267,10.667,10.667,10.667h33.067c5.333,0,10.667-4.267,10.667-10.667V307.229
		C411.748,301.895,406.414,297.629,401.081,297.629z"/>
	<path style="fill:#F3F3F3;" d="M471.481,297.629h-38.4c-5.333,0-10.667,4.267-10.667,10.667v164.267
		c0,5.333,4.267,10.667,10.667,10.667h38.4c5.333,0,10.667-4.267,10.667-10.667V307.229
		C481.081,301.895,476.814,297.629,471.481,297.629z"/>
</g>
<g>
	<path style="fill:#415A6B;" d="M105.614,322.162H84.281c-5.333,0-10.667,4.267-10.667,10.667v74.667
		c0,5.333,4.267,10.667,10.667,10.667h20.267c5.333,0,10.667-4.267,10.667-10.667v-74.667
		C115.214,327.495,110.948,322.162,105.614,322.162z"/>
	<path style="fill:#415A6B;" d="M169.614,322.162h-20.267c-5.333,0-10.667,4.267-10.667,10.667v74.667
		c0,5.333,4.267,10.667,10.667,10.667h20.267c5.333,0,10.667-4.267,10.667-10.667v-74.667
		C180.281,327.495,174.948,322.162,169.614,322.162z"/>
	<path style="fill:#415A6B;" d="M234.681,322.162h-21.333c-5.333,0-10.667,4.267-10.667,10.667v74.667
		c0,5.333,4.267,10.667,10.667,10.667h21.333c5.333,0,10.667-4.267,10.667-10.667v-74.667
		C244.281,327.495,240.014,322.162,234.681,322.162z"/>
	<path style="fill:#415A6B;" d="M362.681,322.162h-20.267c-5.333,0-10.667,4.267-10.667,10.667v74.667
		c0,5.333,4.267,10.667,10.667,10.667h20.267c5.333,0,10.667-4.267,10.667-10.667v-74.667
		C373.348,327.495,369.081,322.162,362.681,322.162z"/>
	<path style="fill:#415A6B;" d="M427.748,322.162h-20.267c-5.333,0-10.667,4.267-10.667,10.667v74.667
		c0,5.333,4.267,10.667,10.667,10.667h20.267c5.333,0,10.667-4.267,10.667-10.667v-74.667
		C437.348,327.495,433.081,322.162,427.748,322.162z"/>
</g>
<g>
</g>
<g>
</g>
<g>
</g>
<g>
</g>
<g>
</g>
<g>
</g>
<g>
</g>
<g>
</g>
<g>
</g>
<g>
</g>
<g>
</g>
<g>
</g>
<g>
</g>
<g>
</g>
<g>
</g>
</svg>
